PathFileType	4	(X/Y/Z)	Patient4_TMGait_0pt4_01_right_30.trc.trc
DataRate	CameraRate	NumFrames	NumMarkers	Units	OrigDataRate	OrigDataStartFrame	OrigNumFrames
74.074074074074	74.074074074074	6	33	mm	74.074074074074	89	       141
Frame#	Time	Sacral			L.Shoulder			Chest			R.Shoulder			Neck			R.ASIS			L.ASIS			R.Thigh.Superior			R.Thigh.Lateral			R.Thigh.Inferior			R.Patella			L.Thigh.Superior			L.Thigh.Lateral			L.Thigh.Inferior			L.Patella			L.Shank.Superior			L.Shank.Lateral			L.Shank.Inferior			R.Shank.Superior			R.Shank.Lateral			R.Shank.Inferior			R.Heel			R.Midfoot.Superior			R.Midfoot.Lateral			R.Toe			L.Heel			L.Midfoot.Lateral			L.Midfoot.Superior			L.Toe			L.Elbow			L.Wrist			R.Elbow			R.Wrist			
		X1	Y1	Z1	X2	Y2	Z2	X3	Y3	Z3	X4	Y4	Z4	X5	Y5	Z5	X6	Y6	Z6	X7	Y7	Z7	X8	Y8	Z8	X9	Y9	Z9	X10	Y10	Z10	X11	Y11	Z11	X12	Y12	Z12	X13	Y13	Z13	X14	Y14	Z14	X15	Y15	Z15	X16	Y16	Z16	X17	Y17	Z17	X18	Y18	Z18	X19	Y19	Z19	X20	Y20	Z20	X21	Y21	Z21	X22	Y22	Z22	X23	Y23	Z23	X24	Y24	Z24	X25	Y25	Z25	X26	Y26	Z26	X27	Y27	Z27	X28	Y28	Z28	X29	Y29	Z29	X30	Y30	Z30	X31	Y31	Z31	X32	Y32	Z32	X33	Y33	Z33	

89	39.948000000000	904.295722560050	1007.530912824173	505.697396119297	1076.664503123923	1427.471607941832	297.626205345266	1188.056814890590	1363.802120494546	454.360620322393	1117.606975460388	1447.827928318324	629.488409171674	1085.080629654703	1496.282512018744	449.517545717501	1138.813946295087	945.210699864713	610.011635612095	1111.040286290343	963.187950916160	336.721066888487	1189.923702953369	746.981574169461	586.252519859366	1122.071188502202	633.526725718283	656.664543811678	1203.337220141661	579.661864014690	579.058765950465	1202.636629955756	472.076657082405	600.110919040330	1171.847367477176	758.003497396948	362.671979436662	1088.841419824369	637.552779458538	308.164637093062	1181.149690792600	565.996083809472	367.596506493406	1185.655028671123	496.933808721349	376.697343832820	1162.703587307662	424.033969444857	368.989675884517	1077.662509013388	305.470068517903	320.812857553941	1137.597344725366	196.540251169330	388.977412267106	1130.597338051662	400.774727441802	607.002728682700	1015.355708567364	350.160990349807	669.898501951802	1008.971408925841	241.237454815951	618.235966593765	813.379372369503	157.704903666303	591.407538088620	985.743305409535	120.894580057080	635.088958147111	878.112987232970	109.825166591144	667.975308175464	1062.468221951065	32.669352084879	666.358117382345	1017.631622586750	38.118117449079	434.022348932206	1088.255871892866	36.285727980535	350.512714810731	1172.243439757355	96.974491593741	374.465811878084	1299.766161703164	45.504686559963	340.774715134822	1016.046364879147	1080.783186101146	182.609147105439	1119.191501847857	840.115622241708	150.517718717802	1104.417653441184	1109.828430510422	772.397260705732	1259.907333764691	903.712447015212	743.856434320081	
90	39.961500000000	903.279040113790	1007.142603073381	503.004495450045	1077.380499827648	1426.978322206626	294.930308639340	1187.476730344544	1363.552361317702	452.651339020103	1115.679631259150	1447.860115388495	627.112440904991	1084.768371483753	1496.095670445843	446.698251280055	1137.647492467552	945.438765897066	608.445414109219	1110.936053961650	963.241237957063	334.921834012042	1194.102836101786	750.185593963398	584.099761266151	1130.160668681499	635.196757550362	654.827283535265	1213.019832936103	583.206446424381	577.166624054803	1214.431627285176	474.703389476838	598.373892209982	1170.957705698516	757.393123007623	362.059583440929	1088.329062643727	637.253411229757	306.948619738152	1179.620316880702	565.467440011681	367.556047828919	1183.572773617754	496.185970405316	376.766681490817	1160.178993587567	423.281317197532	368.951183234320	1074.679120925882	305.231616975970	320.534927430345	1133.337994681895	196.065489221597	389.228237555671	1141.024406522536	403.427592815872	605.371082245752	1024.349386558130	355.939353181988	668.067820947339	1015.287365630833	247.012151507083	617.139199608826	818.135542039841	172.151153811580	589.905847951083	987.906272403203	125.127884853111	634.295870734777	879.662418446869	121.003319769278	666.992188994912	1058.445874379786	31.766185597806	666.366489308007	1012.123956588677	38.043041868418	434.024380384257	1082.742390805482	36.258591907111	350.511816409661	1166.805686522960	96.847135508094	374.621604172199	1294.313098072417	45.206484365617	340.787310273974	1019.096536621427	1080.410751898594	178.423585032803	1125.997216202824	841.211786233099	147.487597138985	1097.837328001537	1110.151452213811	770.264873524983	1247.809975539103	899.232961335721	745.283722661465	
91	39.975000000000	902.256989185945	1006.706058867593	500.459708223362	1077.891775701809	1426.519546843679	292.492144391588	1186.767916101303	1363.305769507766	451.131650245293	1113.649957328223	1447.795036489554	624.971405241217	1084.331042152105	1495.890712142042	444.163303334588	1136.471300666344	945.684244942033	606.919130545069	1110.758427235406	963.235848673879	333.189183484675	1197.884170779773	753.557010416508	581.815377716770	1137.941010421913	637.211556172821	652.965489901691	1222.114608559602	587.145781195103	575.056045611211	1225.812747320278	477.823366696089	596.396420915678	1170.237482859214	756.859116510726	361.640766006481	1088.054044010395	636.936297460712	305.855104607664	1178.376966979156	564.953928616182	367.578974856177	1181.826052971290	495.423153699181	376.903145173760	1157.917163615814	422.485682000055	368.985873108023	1071.858533110385	305.018033091541	320.308534285801	1129.174191964306	195.563721519310	389.490371341008	1151.238119540163	406.460731065148	603.594465811639	1033.249036854863	361.860482898551	666.009696144600	1021.897253525908	252.928923401043	615.862850072291	823.782679707318	186.157918221241	587.914957424338	990.630205880949	129.616912497855	633.304427023528	882.005543154815	132.114769811402	665.633101891126	1055.040805688436	31.084986058168	666.436693897273	1006.643503155127	37.975185134991	434.015257133559	1077.267151251981	36.250560599651	350.506522284763	1161.402601646022	96.742806684470	374.784719171901	1288.889785726288	44.936035067627	340.812483448773	1022.240012585769	1080.072076386655	174.429772849572	1132.714294445069	842.345522805463	144.655977919770	1091.005948223752	1110.351731085649	768.153070148210	1235.246948750028	894.761757659433	747.096682077231	
92	39.988500000000	901.238813546827	1006.276706105926	498.042876998730	1078.218693554769	1426.144953460092	290.303716182124	1185.956251917396	1363.102734155352	449.784853304408	1111.559947422382	1447.674661061128	623.053500010116	1083.790447491767	1495.705893491926	441.908622328357	1135.272436192509	945.981663585979	605.431941969965	1110.528860191483	963.179146473674	331.541897278989	1201.204724636014	757.067203465801	579.407888501871	1145.305927883580	639.553641298490	651.093318753336	1230.510876225136	591.430934891634	572.745634748749	1236.645190231438	481.374855673791	594.243366121568	1169.673889502156	756.374709859609	361.283268383060	1087.861866727773	636.599396053177	304.891591250236	1177.295946069888	564.429915790896	367.600244873127	1180.294930171173	494.656492157505	377.072313467676	1155.817673829492	421.672198240734	369.065906224008	1069.116144516132	304.835059236124	320.132604866458	1125.061710026648	195.051473980356	389.747338998061	1161.098650469538	409.826210932877	601.725904202472	1041.896323604721	367.814625428748	663.754568080376	1028.716186069470	258.836794655604	614.441402008614	830.155172889058	199.219676575295	585.475921657969	993.982233424758	134.254323586671	632.148511292112	885.148098349406	142.728515298237	663.911533712712	1052.612261650126	30.757163101332	666.530050839489	1001.190957074114	37.919423302498	433.994932171899	1071.830298504973	36.259919542448	350.495549752951	1156.033357967713	96.660402126708	374.944271874638	1283.496327538975	44.692132085757	340.841906704724	1025.459184975078	1079.811572504357	170.670401687725	1139.309034393657	843.545568832080	142.068886695349	1084.015678939413	1110.471322494364	766.038769997889	1222.259139766637	890.339539086722	749.267297283670	
93	40.002000000000	900.229623183512	1005.902113057186	495.731015338978	1078.400532208827	1425.892458737488	288.348086394524	1185.070563627216	1362.975874416621	448.596853532526	1109.442460249434	1447.539723334730	621.343689566491	1083.171334628188	1495.574357880321	439.918485080778	1134.032415657455	946.353380970450	603.993690567490	1110.272735624282	963.083813669230	330.003106782630	1204.037044157920	760.678817837866	576.917621009097	1152.168532008778	642.183738320531	649.233151112904	1238.140984829110	595.992233143698	570.285509468220	1246.818607242930	485.285143064426	591.989656329506	1169.224475050258	755.906703728942	360.885158718977	1087.603269468537	636.246886552166	304.055503486429	1176.237366966248	563.875139281790	367.579934377857	1178.833749848688	493.895301471598	377.247814197550	1153.758837707234	420.867272927699	369.164856182191	1066.356203976854	304.684166331251	320.001755171112	1120.946368691685	194.545261245993	389.985474503606	1170.500247885875	413.453842022903	599.821462230122	1050.181196631455	373.654459321542	661.351264495424	1035.691125678984	264.555117690515	612.909982372589	837.087379446603	210.816908403213	582.675756429666	998.069120958120	138.899416844785	630.864933282590	889.121217628363	152.390526470843	661.875262507030	1051.592903071316	30.890709797516	666.583002203494	995.761066639959	37.878466617988	433.965506742090	1066.425870128431	36.282991036504	350.479490557621	1150.691468113887	96.596065587586	375.091631419918	1278.127619682071	44.469869017234	340.869232972820	1028.719371910679	1079.663394486840	167.181554628299	1145.749846246655	844.836141722548	139.772621659710	1076.977002245338	1110.552011352157	763.908544321845	1208.907157639682	886.017366587753	751.752487162989	
94	40.015500000000	899.230010992280	1005.619567119081	493.500928593318	1078.491553834205	1425.785946181624	286.603540950040	1184.141483455421	1362.947540963409	447.558487926961	1107.322354524189	1447.426821640199	619.826933250151	1082.501266424351	1495.521901543764	438.169687961878	1132.734079780206	946.811208012431	602.622561287748	1110.016399214329	962.970054348971	328.593181243594	1206.384197505853	764.347470417654	574.413705480929	1158.458073914226	645.043779997348	647.414358583890	1244.973624059807	600.744522489710	567.751919486469	1256.246560172826	489.476610902189	589.714656202793	1168.822344500122	755.424595391505	360.387661175771	1087.150295628813	635.890323024699	303.333801192698	1175.062537988973	563.278973478559	367.501486969721	1177.289996801805	493.147812715031	377.410190540413	1151.613483853802	420.096651054699	369.258000406272	1063.483738875215	304.563779014712	319.905471943603	1116.771873550472	194.061087896943	390.193240453016	1179.373871955656	417.256316951237	597.935417164646	1058.049241118344	379.197406467780	658.865315818539	1042.810469326343	269.881463296672	611.302558523475	844.446226154241	220.457406090445	579.640500309058	1003.036024808492	143.378544123728	629.490803448195	893.992287426668	160.656718436164	659.601904297591	1052.449266656509	31.538147427024	666.512575621942	990.345359959018	37.853411018958	433.930004495096	1061.044490571427	36.315008166435	350.459831035218	1145.367138666315	96.544926254017	375.220007477190	1272.775724480426	44.262997569918	340.889940132181	1031.974212658497	1079.649071784302	163.990279838984	1152.007634182955	846.234027112717	137.810636613992	1070.008353441932	1110.630093821402	761.759551200885	1195.272204317187	881.855617270885	754.495510597090	
